<?xml version="1.0" standalone="no"?>
<!DOCTYPE svg PUBLIC "-//W3C//DTD SVG 20010904//EN"
 "http://www.w3.org/TR/2001/REC-SVG-20010904/DTD/svg10.dtd">
<svg version="1.0" xmlns="http://www.w3.org/2000/svg"
 width="866.000000pt" height="649.000000pt" viewBox="0 0 866.000000 649.000000"
 preserveAspectRatio="xMidYMid meet">

<g transform="translate(0.000000,649.000000) scale(0.100000,-0.100000)"
fill="#000000" stroke="none">
<path d="M3974 5145 c-412 -76 -869 -289 -1269 -594 -128 -98 -365 -332 -444
-440 -157 -213 -233 -399 -248 -603 l-6 -87 -78 -61 c-187 -144 -289 -255
-289 -311 0 -38 27 -79 51 -79 11 0 91 62 180 138 88 75 164 138 169 140 4 1
20 -22 35 -53 43 -89 124 -169 219 -215 120 -60 199 -73 386 -67 85 3 189 13
230 21 163 33 372 101 575 189 145 62 441 215 432 223 -2 2 -43 -12 -93 -32
-265 -104 -674 -219 -939 -265 -169 -29 -396 -31 -501 -5 -125 31 -227 112
-253 199 -5 17 -12 39 -15 48 -12 28 437 352 738 534 381 229 895 435 1088
435 41 0 42 -15 7 -67 -38 -55 -81 -98 -234 -231 -60 -52 -113 -101 -117 -107
-10 -17 2 -101 17 -121 15 -22 25 -16 190 101 255 182 448 300 650 399 209
102 386 161 523 173 90 7 92 -2 23 -85 -67 -80 -149 -152 -262 -229 -78 -53
-98 -71 -103 -95 -10 -52 -7 -74 15 -102 17 -22 27 -26 47 -21 51 13 159 97
332 260 82 78 204 157 310 203 25 11 65 28 90 39 288 130 708 185 802 105 38
-32 14 -69 -190 -294 l-133 -146 22 -46 c12 -25 23 -46 26 -46 23 0 192 146
258 222 78 90 115 168 115 239 0 147 -105 219 -319 219 -199 0 -534 -85 -785
-199 -38 -17 -70 -31 -71 -31 -1 0 -14 17 -28 39 -29 44 -96 81 -148 81 -86 0
-294 -54 -462 -121 -104 -41 -379 -179 -408 -205 -26 -23 -39 -16 -39 20 0 42
-34 94 -80 120 -95 56 -375 -4 -710 -151 -335 -148 -748 -385 -1077 -619
l-105 -75 7 48 c41 287 340 662 803 1008 280 209 609 374 1052 526 96 34 202
67 235 74 l60 13 -105 0 c-58 0 -137 -6 -176 -13z"/>
<path d="M2060 2660 c0 -7 693 -10 2060 -10 1367 0 2060 3 2060 10 0 7 -693
10 -2060 10 -1367 0 -2060 -3 -2060 -10z"/>
<path d="M3502 2383 l3 -128 114 0 c81 0 116 4 118 12 3 9 -19 13 -79 15 l-83
3 -3 113 -3 112 -35 0 -35 0 3 -127z"/>
<path d="M3800 2379 l0 -130 33 3 c32 3 32 4 35 61 l3 57 53 0 c101 0 138 29
122 95 -9 35 -41 45 -152 45 l-94 0 0 -131z m176 86 c4 -8 3 -26 0 -40 -6 -22
-11 -25 -56 -25 l-50 0 0 40 0 40 50 0 c36 0 52 -4 56 -15z"/>
<path d="M4412 2383 l3 -128 30 0 30 0 5 100 5 100 24 -89 c27 -95 42 -119 75
-114 17 2 26 20 50 96 17 50 34 92 38 92 5 0 8 -42 6 -92 l-3 -93 30 0 30 0 3
128 3 128 -53 -3 -53 -3 -25 -87 c-14 -48 -28 -90 -32 -93 -5 -5 -35 83 -53
158 -7 25 -11 27 -61 27 l-55 0 3 -127z"/>
<path d="M4110 2376 c0 -113 2 -124 18 -121 9 2 65 4 125 4 100 1 107 2 107
21 0 19 -7 20 -95 20 l-95 0 0 35 0 35 85 0 c78 0 85 2 85 20 0 17 -8 19 -82
22 -70 3 -83 6 -86 21 -3 15 6 17 87 17 90 0 91 0 91 25 l0 25 -120 0 -120 0
0 -124z"/>
</g>
</svg>
